<?xml version="1.0" standalone="no"?>
<!DOCTYPE svg PUBLIC "-//W3C//DTD SVG 1.1//EN" "http://www.w3.org/Graphics/SVG/1.1/DTD/svg11.dtd">
<svg xmlns="http://www.w3.org/2000/svg">
<defs >
<font id="Anton" horiz-adv-x="939" ><font-face
    font-family="Anton"
    units-per-em="2048"
    panose-1="2 0 5 3 0 0 0 0 0 0"
    ascent="2331"
    descent="-674"
    alphabetic="0" />
<glyph unicode=" " glyph-name="space" horiz-adv-x="480" />
<glyph unicode="!" glyph-name="exclam" horiz-adv-x="508" d="M75 1593H433L363 439H145L75 1593ZM75 1V299H433V1H75Z" />
<glyph unicode="&quot;" glyph-name="quotedbl" horiz-adv-x="863" d="M307 957H131L31 1593H383L307 957ZM747 957H571L471 1593H823L747 957Z" />
<glyph unicode="#" glyph-name="numbersign" horiz-adv-x="1150" d="M115 886V1118H270L363 1593H647L554 1118H720L813 1593H1097L1004 1118H1097V886H959L931 741H1039V509H885L786 0H503L602 509H435L336 0H53L152 509H57V741H197L225 886H115ZM509 886L481
741H647L675 886H509Z" />
<glyph unicode="$" glyph-name="dollar" horiz-adv-x="982" d="M402 -113V36Q214 58 133 168T52 488V543H400V501Q400 347 494 347Q533 347 555 377T578 456Q578 491 516 560L228 849Q70 1007 70 1192Q70 1327 159 1429T402 1558V1679H575V1561Q741 1540 832 1424T924
1105H567L565 1190Q563 1218 539 1238T483 1259Q448 1259 424 1238T399 1182Q399 1132 498 1034L778 758Q852 685 890 595T929 413Q929 319 890 239T770 103T575 34V-113H402Z" />
<glyph unicode="%" glyph-name="percent" horiz-adv-x="2186" d="M1741 -18Q1666 -18 1599 6T1474 78T1384 209T1350 402V765Q1350 974 1450 1078T1741 1183T2032 1079T2133 765V402Q2133 293 2100 210T2009 78T1885 6T1741 -18ZM1834 343V829Q1834 852 1834 864T1828
896T1814 928T1787 947T1741 956Q1715 956 1697 948T1669 928T1654 897T1649 864T1648 829V343Q1648 296 1677 270T1741 244T1804 270T1834 343ZM994 0H671L1211 1767H1535L994 0ZM444 528Q369 528 302 552T177 624T87 755T53 948V1311Q53 1520 153 1624T444 1729T735
1625T836 1311V948Q836 839 803 756T712 624T588 552T444 528ZM537 889V1375Q537 1398 537 1410T531 1442T517 1474T490 1493T444 1502Q418 1502 400 1494T372 1474T357 1443T352 1410T351 1375V889Q351 842 380 816T444 790T507 816T537 889Z" />
<glyph unicode="&amp;" glyph-name="ampersand" horiz-adv-x="1010" d="M30 386Q30 432 31 460T36 534T50 613T76 690T118 770T181 845T268 921Q225 1006 197 1098T168 1262Q168 1416 268 1499T516 1582Q581 1582 641 1564T751 1509T831 1411T861 1273Q861 1063
626 875L689 726Q748 878 861 961L1000 744Q883 651 803 432L982 0H642L605 97Q560 41 492 10T351 -21Q289 -21 233 2T131 73T58 200T30 386ZM336 423Q336 420 336 413Q336 380 337 360T344 305T366 253T407 235Q428 235 446 245T475 269T494 299T505 323T508 334L386
625L374 606Q361 588 349 538T336 423ZM492 1273Q492 1219 535 1110L552 1128Q570 1147 587 1188T605 1273Q605 1336 546 1336Q521 1336 507 1318T492 1273Z" />
<glyph unicode="&apos;" glyph-name="quotesingle" horiz-adv-x="424" d="M308 957H132L32 1593H384L308 957Z" />
<glyph unicode="(" glyph-name="parenleft" horiz-adv-x="619" d="M575 268Q575 268 575 -17Q504 -14 435 7T298 73T179 183T96 346T64 562V1151Q64 1434 195 1578T575 1729V1462Q552 1458 533 1451T500 1435T476 1412T458 1388T447 1358T440 1328T437 1295T436
1265T436 1233V450Q436 375 475 330T575 268Z" />
<glyph unicode=")" glyph-name="parenright" horiz-adv-x="620" d="M45 268Q105 284 144 329T184 450V1233Q184 1258 184 1264T183 1295T180 1328T174 1357T162 1387T145 1412T121 1435T88 1450T45 1462V1729Q294 1722 425 1578T556 1151V562Q556 444 524 346T441
184T322 74T185 7T45 -17V268Z" />
<glyph unicode="*" glyph-name="asterisk" horiz-adv-x="946" d="M162 1480L400 1301L357 1593H589L554 1307L784 1480L900 1280L625 1171L900 1054L784 854L553 1036L589 741H357L401 1043L162 854L46 1054L320 1171L46 1280L162 1480Z" />
<glyph unicode="+" glyph-name="plus" horiz-adv-x="752" d="M52 509V741H260V949H492V741H700V509H492V301H260V509H52Z" />
<glyph unicode="," glyph-name="comma" horiz-adv-x="493" d="M58 1V299H432V10L330 -235H119L185 1H58Z" />
<glyph unicode="-" glyph-name="hyphen" horiz-adv-x="646" d="M65 509V741H581V509H65Z" />
<glyph unicode="." glyph-name="period" horiz-adv-x="475" d="M59 1V299H417V1H59Z" />
<glyph unicode="/" glyph-name="slash" horiz-adv-x="851" d="M411 0H48L458 1767H822L411 0Z" />
<glyph unicode="0" glyph-name="zero" horiz-adv-x="1074" d="M71 482V1109Q71 1358 190 1482T536 1607Q765 1607 884 1483T1003 1109V482Q1003 377 977 292T905 150T800 55T674 -1T537 -18Q466 -18 401 -1T275 54T169 149T98 291T71 482ZM624 447V1151Q624 1177
624 1192T618 1231T605 1268T579 1292T537 1302T495 1292T470 1269T456 1232T451 1193T450 1151V447Q450 391 477 361T537 330T596 360T624 447Z" />
<glyph unicode="1" glyph-name="one" horiz-adv-x="710" d="M330 1593H613V0H240V1160Q228 1154 208 1145T130 1121T22 1106V1379Q50 1379 99 1394T201 1435T292 1503T330 1593Z" />
<glyph unicode="2" glyph-name="two" horiz-adv-x="1029" d="M54 0V82Q54 153 68 229Q89 339 135 431T242 606T374 763T517 914Q559 959 583 1014T607 1140Q607 1207 587 1246T512 1286Q424 1286 424 1134V985H54L50 1030Q51 1165 69 1272T139 1454T281 1567T517
1607Q629 1607 715 1575T859 1482T948 1337T979 1146Q979 1038 943 943T849 770Q803 705 754 653T658 549T566 444T487 322H967V0H54Z" />
<glyph unicode="3" glyph-name="three" horiz-adv-x="1034" d="M494 -19Q383 -19 300 5T161 82T77 216T49 410V564H410V409Q410 387 413 367T426 331T457 306T511 297Q536 297 553 303T581 329T597 383T602 476Q602 521 595 562T570 635T524 684T452 703Q441 703
433 703T418 701V1008Q507 1008 556 1046T605 1178Q605 1293 519 1293Q482 1293 463 1282T435 1254T425 1216T424 1174V1122H60L58 1182Q57 1297 87 1378T175 1510T320 1584T517 1607Q624 1607 708 1582T849 1504T937 1371T967 1182Q967 1127 961 1077T936 984T886
910T802 859Q869 827 904 785T954 691T970 583T971 465Q971 351 946 261T863 109T715 14T494 -19Z" />
<glyph unicode="4" glyph-name="four" horiz-adv-x="1066" d="M1009 575V270H939V-1H570V270H28V537L381 1592H939V575H1009ZM372 575H570V1299L372 575Z" />
<glyph unicode="5" glyph-name="five" horiz-adv-x="1039" d="M536 -24Q431 -24 343 -1T192 72T92 196T56 373V557H422V471Q422 407 431 372T455 319T485 299T516 295Q570 295 589 330T609 428V644Q609 674 607 702T595 754T567 793T518 812Q418 812 418 681H95V1593H934V1260H429L430
1048Q483 1097 604 1097Q681 1097 739 1075T840 1014T911 925T956 817T980 698T987 579Q987 502 980 428T955 286T904 162T821 64T701 0T536 -24Z" />
<glyph unicode="6" glyph-name="six" horiz-adv-x="1067" d="M547 -21Q458 -21 387 -6T267 33T182 98T125 182T92 284T76 399T72 527V874Q72 875 72 878Q72 983 73 1036T83 1180T110 1321T163 1433T248 1528T377 1583T557 1607Q632 1607 709 1586T855 1525T965
1419T1008 1272V1087H639Q639 1094 639 1122T639 1170T634 1218T620 1263T594 1294T551 1307Q521 1307 500 1298T469 1276T453 1244T447 1213T446 1184V895L452 906Q458 916 472 931Q487 946 508 960T565 985T643 996Q845 996 925 882T1006 517Q1006 422 996 349T956
203T876 84T743 8T547 -21ZM446 573Q446 573 446 419Q446 293 534 293Q588 293 607 343Q620 377 620 475V554Q620 694 539 694Q446 694 446 573Z" />
<glyph unicode="7" glyph-name="seven" horiz-adv-x="920" d="M95 1Q105 121 128 235T183 461T257 679T346 893Q380 965 405 1018T447 1110T477 1175T497 1221T509 1252T517 1276H20V1593H908V1338Q902 1290 883 1239T836 1129T776 1003T708 858Q674 777 640 687T576
493T524 267T493 1Q403 1 340 1T234 1T165 1T125 1T105 1T95 1Z" />
<glyph unicode="8" glyph-name="eight" horiz-adv-x="1056" d="M528 299Q624 299 624 468Q624 522 623 570T612 653T584 708T528 729Q492 729 473 709T444 653T434 570T432 468Q432 299 528 299ZM528 1608Q640 1608 725 1585T869 1510T958 1377T988 1181Q988 1144
986 1100T971 1012T927 932T839 873Q896 848 926 811T971 726T987 618T990 490Q990 358 965 262T885 104T741 12T528 -18Q403 -18 315 12T172 104T91 262T66 490Q66 559 68 618T85 725T129 811T217 873Q160 895 130 932T86 1012T70 1099T68 1181Q68 1296 98 1377T186
1509T330 1584T528 1608ZM528 1314Q500 1314 482 1299T454 1262T439 1213T435 1162Q435 999 528 999Q621 999 621 1162Q621 1186 617 1212T603 1261T574 1299T528 1314Z" />
<glyph unicode="9" glyph-name="nine" horiz-adv-x="1065" d="M530 -18Q440 -18 355 3T204 70T98 183T58 346V476H430L429 417Q429 397 436 380T455 349T483 328T518 320Q534 320 550 326T580 347T602 381T610 431V656Q575 618 522 598T415 578Q334 578 276 596T179
646T116 722T81 819T65 932T61 1055Q61 1131 69 1201T99 1332T154 1444T241 1530T366 1586T533 1606Q672 1606 761 1565T902 1450T973 1272T993 1043V707Q993 623 989 537T970 371T926 219T845 96T716 13T530 -18ZM441 1046Q442 1009 444 977T455 922T481 887T531
878Q621 878 621 1029V1131Q621 1207 603 1249T533 1292Q504 1292 486 1279T458 1244T444 1195T440 1140T440 1088T441 1046Z" />
<glyph unicode=":" glyph-name="colon" horiz-adv-x="531" d="M86 237V535H444V237H86ZM86 976V1274H444V976H86Z" />
<glyph unicode=";" glyph-name="semicolon" horiz-adv-x="544" d="M87 236V534H461V245L359 0H148L214 236H87ZM87 976V1274H445V976H87Z" />
<glyph unicode="&lt;" glyph-name="less" horiz-adv-x="710" d="M53 545V959L623 1300V941L281 749L623 558V200L53 545Z" />
<glyph unicode="=" glyph-name="equal" horiz-adv-x="690" d="M88 509V741H602V509H88ZM88 892V1116H602V892H88Z" />
<glyph unicode="&gt;" glyph-name="greater" horiz-adv-x="711" d="M658 545L88 200V558L430 749L88 941V1300L658 959V545Z" />
<glyph unicode="?" glyph-name="question" horiz-adv-x="1041" d="M523 1690Q609 1690 678 1674T796 1631T881 1563T938 1476T971 1373T988 1260T993 1140Q993 1019 964 920T875 743T714 622T475 579V409H142V825Q225 825 288 829T400 844T484 868T542 907T581
957T603 1025T613 1107T616 1208Q616 1284 597 1327T523 1371Q509 1371 499 1370T475 1358T451 1329T436 1274T429 1185V1039H63V1293Q63 1491 188 1590T523 1690ZM131 1V299H489V1H131Z" />
<glyph unicode="@" glyph-name="at" horiz-adv-x="1842" d="M834 718Q834 646 855 608T914 570Q936 570 952 582T976 613T987 650T990 687V972Q957 972 933 966T891 950T863 921T846 885T838 837T835 783T834 718ZM1163 224Q1163 224 1207 -37Q1020 -64 882 -64Q458
-64 256 134T53 726Q53 878 76 1002T142 1220T250 1383T395 1501T575 1577T785 1618T1024 1630Q1188 1630 1320 1586T1539 1469T1684 1295T1768 1089T1793 867Q1793 577 1685 423T1377 268Q1225 268 1139 322T1016 494Q956 326 760 326Q709 326 665 347T582 411T521
534T499 718Q499 963 579 1086T798 1209Q903 1209 1011 1114L1051 1226H1312V621Q1312 566 1337 532T1393 497Q1443 497 1475 612T1507 888Q1507 959 1494 1023T1447 1151T1361 1261T1223 1336T1027 1365Q964 1365 918 1363T812 1354T710 1334T619 1297T536 1241T468
1159T415 1049T383 905T370 723Q370 569 403 467T505 308T664 229T887 206Q998 206 1163 224Z" />
<glyph unicode="A" glyph-name="A" horiz-adv-x="947" d="M750 1593L926 0H586L561 240H383L361 0H19L199 1593H750ZM487 1294H455L408 530H534L487 1294Z" />
<glyph unicode="B" glyph-name="B" horiz-adv-x="988" d="M87 0V1593H564Q751 1593 841 1511T931 1229Q931 1223 931 1212Q931 1177 931 1160T928 1107T918 1051T898 1000T866 951T818 914T751 887Q806 874 845 842T904 775T935 687T949 600T951 516Q951 390 934
300T873 140T754 35T564 0H87ZM431 745V283Q455 281 466 281Q603 281 603 399Q603 399 603 598Q603 674 578 709T496 745H431ZM431 993H503Q529 993 545 1004T569 1035T578 1072T580 1112V1270Q580 1346 505 1346H431V993Z" />
<glyph unicode="C" glyph-name="C" horiz-adv-x="993" d="M937 686V385Q937 177 819 80T489 -18Q301 -18 183 89T65 395V1134Q65 1371 169 1488T497 1606Q588 1606 665 1584T801 1517T895 1402T929 1237V956H581V1141Q581 1284 497 1284Q447 1284 431 1253T415
1165V412Q415 363 437 327T497 291Q531 291 556 317T581 412V686H937Z" />
<glyph unicode="D" glyph-name="D" horiz-adv-x="1020" d="M87 0V1593H572Q769 1593 859 1493T951 1217Q951 1217 955 473Q955 234 862 117T560 0H87ZM441 1311V291Q444 292 453 292Q459 292 475 291T502 290Q603 290 603 375V1161Q603 1248 576 1280T480 1313Q469
1313 441 1311Z" />
<glyph unicode="E" glyph-name="E" horiz-adv-x="862" d="M87 0V1593H791V1284H445V973H777V674H445V311H814V0H87Z" />
<glyph unicode="F" glyph-name="F" horiz-adv-x="824" d="M87 0V1593H791V1282H441V1030H773V723H441V0H87Z" />
<glyph unicode="G" glyph-name="G" horiz-adv-x="1003" d="M796 0L736 135Q642 -18 446 -18Q65 -18 65 475V1165Q65 1278 95 1362T168 1491T275 1564T389 1598T501 1606Q575 1606 635 1596T738 1563T815 1514T869 1446T904 1366T925 1271T934 1167T937 1054H601V1180Q601
1218 593 1243T571 1278T544 1292T517 1296Q487 1296 469 1288T440 1268T424 1225T418 1165T417 1077V461Q417 426 419 402T431 350T460 308T513 293Q566 293 583 334T601 469V653H507V928H933V0H796Z" />
<glyph unicode="H" glyph-name="H" horiz-adv-x="1040" d="M437 723V0H87V1593H437V1024H603V1593H953V0H603V723H437Z" />
<glyph unicode="I" glyph-name="I" horiz-adv-x="514" d="M87 0V1593H427V0H87Z" />
<glyph unicode="J" glyph-name="J" horiz-adv-x="965" d="M454 -18Q370 -18 294 6T157 75T60 192T24 352V752H372V403Q372 360 391 333T450 305Q530 305 530 444Q530 455 530 472T529 496V1593H884V399Q884 207 763 95T454 -18Z" />
<glyph unicode="K" glyph-name="K" horiz-adv-x="982" d="M599 1593H953L756 864L994 0H629L437 772V0H87V1593H435V956L599 1593Z" />
<glyph unicode="L" glyph-name="L" horiz-adv-x="809" d="M87 0V1593H439V311H801V0H87Z" />
<glyph unicode="M" glyph-name="M" horiz-adv-x="1546" d="M935 0H619L425 1149V0H87V1593H623L771 762L918 1593H1459V0H1117V1149L935 0Z" />
<glyph unicode="N" glyph-name="N" horiz-adv-x="1038" d="M951 1593V0H607L431 797V0H87V1593H449L611 831V1593H951Z" />
<glyph unicode="O" glyph-name="O" horiz-adv-x="1000" d="M66 430V1189Q66 1388 173 1497T497 1610Q719 1607 826 1498T934 1189V430Q934 333 910 254T835 112T700 16T503 -15Q386 -18 301 16T165 112T91 253T66 430ZM500 297Q519 297 533 304T556 327T570 357T577
394T579 430T580 465Q580 470 580 473V1113Q580 1119 580 1137T581 1164T580 1190T577 1217T571 1241T561 1263T547 1279T527 1291T500 1295Q479 1295 464 1288T439 1266T424 1238T416 1201T414 1166T414 1130Q414 1126 414 1123T414 1117V477Q414 455 414 442T417
404T424 364T439 331T463 306T500 297Z" />
<glyph unicode="P" glyph-name="P" horiz-adv-x="960" d="M87 0V1593H552Q644 1593 713 1569T835 1491T915 1342T943 1110Q943 993 927 910T870 761T757 664T576 631H433V0H87ZM433 1303V918H453Q481 918 495 919T529 926T558 944T578 978T591 1034T595 1116Q595
1221 568 1262T472 1303H433Z" />
<glyph unicode="Q" glyph-name="Q" horiz-adv-x="1001" d="M500 -18Q386 -18 301 14T166 105T91 243T66 418V1186Q66 1385 174 1495T501 1606Q718 1606 826 1496T934 1186V418Q934 222 836 109L987 20L868 -170L588 -8Q520 -18 500 -18ZM500 299Q544 299 563 341Q580
377 580 475V1110Q580 1113 580 1133T580 1160T579 1186T576 1214T570 1238T560 1260T545 1276T525 1288T498 1292T471 1289T450 1277T435 1260T425 1238T419 1214T415 1187T414 1162T414 1136T414 1114V479Q414 457 414 444T417 406T424 366T439 333T463 308T500
299Z" />
<glyph unicode="R" glyph-name="R" horiz-adv-x="997" d="M443 725Q443 725 443 0H87V1593H627Q710 1593 769 1571T862 1512T915 1415T941 1294T947 1147Q947 1102 946 1074T935 1002T908 929T857 872T773 829Q822 820 854 796T900 735T919 669T924 600Q924 205
920 0H576V621Q576 658 569 680T541 711T501 723T443 725ZM445 1298V1001H533Q603 1001 603 1147Q603 1244 576 1271T464 1298H445Z" />
<glyph unicode="S" glyph-name="S" horiz-adv-x="951" d="M502 -18Q257 -18 153 94T48 440V596H396V453Q396 299 480 299Q519 299 541 329T564 408Q564 472 547 516T494 599T377 709L228 838Q48 993 48 1188Q48 1400 156 1503T455 1607Q460 1607 464 1607T517
1607T643 1585T780 1510T870 1364T900 1135H543L541 1231Q540 1258 518 1279T469 1300Q434 1300 410 1279T385 1223Q385 1155 484 1075L697 903Q749 861 787 818T848 732T885 655T904 580T911 519T912 465Q912 381 901 313T862 181T789 75T671 7T502 -18Z" />
<glyph unicode="T" glyph-name="T" horiz-adv-x="811" d="M20 1593H790V1286H581V0H229V1286H20V1593Z" />
<glyph unicode="U" glyph-name="U" horiz-adv-x="1020" d="M82 422V1593H424V453Q424 451 424 446Q424 420 424 405T429 364T442 323T468 297T510 285Q531 285 546 292T571 313T585 341T593 377T595 412T596 446Q596 451 596 453V1593H938V422Q938 206 835 94T512
-17Q289 -18 186 94T82 422Z" />
<glyph unicode="V" glyph-name="V" horiz-adv-x="932" d="M706 0H226L9 1593H364L463 537L568 1593H923L706 0Z" />
<glyph unicode="W" glyph-name="W" horiz-adv-x="1431" d="M455 588L554 1593H882L976 588L1070 1593H1418L1226 0H804L716 768L632 0H203L14 1593H358L455 588Z" />
<glyph unicode="X" glyph-name="X" horiz-adv-x="952" d="M477 623L363 0H6L195 846L45 1593H389L480 1049L561 1593H906L756 846L944 0H588L477 623Z" />
<glyph unicode="Y" glyph-name="Y" horiz-adv-x="859" d="M596 0H264V524L-17 1593H332L430 1053L528 1593H876L596 524V0Z" />
<glyph unicode="Z" glyph-name="Z" horiz-adv-x="886" d="M34 0V303L456 1284H73V1593H847V1296L417 307H830V0H34Z" />
<glyph unicode="[" glyph-name="bracketleft" horiz-adv-x="699" d="M448 1312V281H650V0H96V1593H650V1312H448Z" />
<glyph unicode="\" glyph-name="backslash" horiz-adv-x="851" d="M440 0L29 1767H393L803 0H440Z" />
<glyph unicode="]" glyph-name="bracketright" horiz-adv-x="699" d="M251 1312H49V1593H603V0H49V281H251V1312Z" />
<glyph unicode="^" glyph-name="asciicircum" horiz-adv-x="970" d="M689 1355L930 432H571L485 1027L399 432H40L281 1355H689Z" />
<glyph unicode="_" glyph-name="underscore" horiz-adv-x="671" d="M10 -232V0H661V-232H10Z" />
<glyph unicode="`" glyph-name="grave" horiz-adv-x="650" d="M526 1553L51 1647V1994L526 1776V1553Z" />
<glyph unicode="a" glyph-name="a" horiz-adv-x="1004" d="M41 430Q41 629 100 729Q151 815 277 874Q341 904 563 980Q563 981 563 983Q563 1015 563 1035T562 1080T560 1120T557 1153T553 1180T546 1201T536 1219T523 1230T507 1237T486 1239Q412 1239 412 1157V1056H64Q63
1073 63 1105Q63 1319 164 1418T504 1518Q581 1518 653 1497T787 1433T886 1315T924 1143V0H568V156Q550 90 485 36T345 -18Q291 -18 250 -9T168 30T101 107T58 237T41 430ZM406 570Q406 570 406 395Q406 262 486 262Q508 262 524 274T548 305T559 342T562 379V774Q470
737 438 688T406 570Z" />
<glyph unicode="b" glyph-name="b" horiz-adv-x="1044" d="M452 160Q452 160 452 0H84V1769H452V1427Q542 1519 652 1519Q673 1519 688 1519T731 1514T779 1503T827 1481T874 1447T915 1396T949 1326T970 1233T979 1114V391Q979 312 965 248T930 143T877 70T818
22T757 -3T704 -15T663 -18Q518 -18 452 160ZM452 1085V457Q452 344 474 304T542 263Q586 263 601 301T616 457V1081Q616 1174 597 1206T540 1239Q501 1239 477 1207T452 1085Z" />
<glyph unicode="c" glyph-name="c" horiz-adv-x="1004" d="M59 492Q59 492 59 954Q59 1258 164 1388T517 1518Q710 1518 831 1416T952 1135V879H587V1116Q587 1172 571 1205T507 1239Q419 1239 419 1114V387Q419 341 439 303T505 264Q518 264 530 269T557 286T580
324T589 389L587 614H952V379Q952 194 833 88T522 -18Q434 -18 363 -1T245 43T162 113T108 197T77 293T62 392T59 492Z" />
<glyph unicode="d" glyph-name="d" horiz-adv-x="1036" d="M64 477Q64 477 68 1153Q68 1225 87 1289T143 1405T240 1487T377 1518Q520 1518 594 1419V1767H952V0H594V159Q556 58 500 20T371 -18Q319 -18 277 -9T204 21T150 66T111 128T87 200T72 285T66 377T64
477ZM422 1083V520Q422 515 422 494Q422 466 422 460Q422 458 422 456T422 452Q422 264 508 264Q524 264 536 270T558 288T573 313T584 346T590 381T593 420T594 456T595 491T594 520V1083Q594 1106 592 1128T581 1177T555 1222T510 1239Q482 1239 463 1225T436
1186T425 1137T422 1083Z" />
<glyph unicode="e" glyph-name="e" horiz-adv-x="1000" d="M494 -18Q414 -18 349 -2T240 41T163 108T111 191T81 287T66 387T62 489V1092Q62 1299 180 1408T512 1518Q944 1518 944 1092V983Q944 780 940 704H420V494Q420 484 420 462T419 427Q419 391 422 366T433
314T459 274T506 260Q535 260 553 280T578 339T588 408T590 483Q590 571 588 579H944V494Q944 369 925 281T858 123T719 17T494 -18ZM508 1249Q480 1249 461 1235T433 1191T421 1132T418 1057Q418 1036 419 994T420 931H588V1087Q588 1249 508 1249Z" />
<glyph unicode="f" glyph-name="f" horiz-adv-x="574" d="M107 0V1161H42Q42 1208 46 1434H107V1536Q107 1778 349 1778Q464 1778 533 1749V1528Q511 1533 500 1533Q472 1533 464 1514T455 1453V1434H533V1157H462V0H107Z" />
<glyph unicode="g" glyph-name="g" horiz-adv-x="1040" d="M470 -220Q323 -220 227 -196T40 -96L161 111Q292 33 423 33Q505 33 549 85T593 231V314Q549 160 364 160Q285 160 226 191T132 276T82 397T65 543V1106Q65 1223 86 1304T148 1432T241 1498T364 1518Q400
1518 432 1510T497 1483T555 1425T593 1331V1500H958V254Q958 117 927 24T831 -122T680 -197T470 -220ZM505 1243Q478 1243 461 1231T437 1196T429 1157T427 1116V582Q427 554 429 535T438 488T463 445T509 430Q593 430 593 582V1116Q593 1159 570 1201T505 1243Z"
/>
<glyph unicode="h" glyph-name="h" horiz-adv-x="1059" d="M84 0V1767H452V1351Q510 1519 671 1519Q813 1519 896 1428T979 1155V0H620V1034Q620 1040 620 1057T621 1085Q621 1243 532 1243Q506 1243 479 1218T452 1135V0H84Z" />
<glyph unicode="i" glyph-name="i" horiz-adv-x="526" d="M84 0V1501H442V0H84ZM84 1593V1769H442V1593H84Z" />
<glyph unicode="j" glyph-name="j" horiz-adv-x="550" d="M113 1500H471V166Q471 -3 404 -89T189 -176Q74 -176 37 -150Q37 -150 37 90Q53 85 70 85Q95 85 104 102T113 156V1500ZM113 1593V1769H471V1593H113Z" />
<glyph unicode="k" glyph-name="k" horiz-adv-x="1017" d="M84 0V1769H438V983L610 1500H981L756 848L1042 0H661L438 707V0H84Z" />
<glyph unicode="l" glyph-name="l" horiz-adv-x="532" d="M448 0H84V1767H448V0Z" />
<glyph unicode="m" glyph-name="m" horiz-adv-x="1575" d="M84 1501H434V1326Q447 1376 469 1412T515 1469T571 1501T629 1516T686 1519Q732 1519 776 1506T864 1457T929 1365Q976 1450 1035 1484T1184 1519Q1251 1519 1303 1502T1389 1453T1445 1382T1478 1292T1493
1196T1497 1096L1493 0H1132V1102Q1132 1247 1059 1247Q1031 1247 1011 1230T980 1184T966 1130T962 1077V0H604V1059Q604 1062 604 1077T604 1101T604 1127T601 1155T596 1181T588 1206T575 1225T558 1238T534 1243Q505 1243 485 1225T454 1177T439 1118T434 1059V0H84V1501Z"
/>
<glyph unicode="n" glyph-name="n" horiz-adv-x="1045" d="M84 0V1501H442V1329Q464 1426 523 1472T668 1518Q809 1518 887 1430T965 1157V0H612V1120Q612 1167 593 1203T532 1239Q506 1239 488 1225T462 1192T448 1143T443 1097T442 1055V0H84Z" />
<glyph unicode="o" glyph-name="o" horiz-adv-x="1018" d="M509 -18Q61 -18 61 449V1051Q61 1266 181 1392T509 1518Q718 1518 838 1392T958 1051V449Q958 214 844 98T509 -18ZM425 1108V375Q425 315 448 288T509 260T569 287T593 375V1108Q593 1239 509 1239T425 1108Z" />
<glyph unicode="p" glyph-name="p" horiz-adv-x="1037" d="M446 -186H82V1500H446V1419Q527 1518 661 1518Q733 1518 788 1495T878 1433T934 1336T964 1215T973 1075V526Q973 524 973 521Q973 449 972 412T965 307T948 203T913 118T856 44T770 1T651 -18Q516 -18
446 59V-186ZM446 1079Q446 1079 446 422Q446 341 465 302T532 262Q574 262 592 302T610 438V1075Q610 1098 610 1108T608 1141T601 1177T588 1205T565 1228T530 1235Q446 1235 446 1079Z" />
<glyph unicode="q" glyph-name="q" horiz-adv-x="1039" d="M591 -186V90Q552 37 498 10T386 -18Q319 -18 267 -2T182 36T125 102T91 180T73 276T66 375T65 482Q65 485 65 487V1075Q65 1152 73 1215T103 1336T159 1433T249 1495T376 1518Q511 1518 591 1419V1500H956V-186H591ZM591
1079Q591 1235 507 1235Q487 1235 473 1228T450 1206T436 1178T430 1142T428 1108T427 1075V438Q427 343 445 303T505 262Q553 262 572 301T591 422V1079Z" />
<glyph unicode="r" glyph-name="r" horiz-adv-x="945" d="M84 0V1500H442V1333Q472 1436 526 1477T663 1518Q763 1518 839 1457T915 1278V776H565V1135Q565 1162 563 1180T547 1216T508 1233Q482 1233 462 1210T442 1147V0H84Z" />
<glyph unicode="s" glyph-name="s" horiz-adv-x="974" d="M559 1053L557 1110Q557 1130 554 1150T543 1191T519 1226T481 1239Q444 1239 425 1218T405 1159Q405 1079 469 1032L690 870Q756 821 804 767T876 669T915 573T933 490T936 418Q936 203 815 93T485 -18Q41
-18 41 434L43 553H401L403 377Q403 341 411 318T435 284T462 271T491 268Q563 268 563 385Q563 415 562 428T555 468T534 515T492 564T422 625L231 772Q169 820 131 865T75 961T52 1052T47 1157Q47 1272 113 1356T277 1479T491 1518Q702 1518 814 1411T927 1081V1053H559Z"
/>
<glyph unicode="t" glyph-name="t" horiz-adv-x="569" d="M101 1761H449V1442H513V1169H449V325Q449 306 450 295T454 272T465 254T487 248T513 252V8Q437 -18 322 -18Q264 -18 223 -3T158 35T122 93T105 160T101 231V1169H46V1442H101V1761Z" />
<glyph unicode="u" glyph-name="u" horiz-adv-x="1046" d="M606 1500H962V0H604V160Q562 54 508 18T373 -18Q297 -18 242 4T156 61T108 151T85 259T80 383V1500H440V455Q440 341 453 303T520 264Q540 264 555 271T579 295T593 326T601 365T603 404T604 443Q604
451 604 455L606 1500Z" />
<glyph unicode="v" glyph-name="v" horiz-adv-x="904" d="M657 0H243L2 1500H361L435 741L447 498L461 743L544 1500H902L657 0Z" />
<glyph unicode="w" glyph-name="w" horiz-adv-x="1444" d="M902 1500L986 583L1078 1500H1435L1219 0H813L720 921L631 0H225L9 1500H366L455 583L542 1500H902Z" />
<glyph unicode="x" glyph-name="x" horiz-adv-x="982" d="M488 684L367 0H17L181 843L53 1501H401L489 989L577 1501H931L804 834L954 0H603L488 684Z" />
<glyph unicode="y" glyph-name="y" horiz-adv-x="905" d="M31 -186V41H143Q199 41 219 55T240 103Q240 122 235 155L4 1501H357L423 821L447 489L475 821L555 1501H910L632 -14Q628 -42 621 -65T606 -105T585 -135T562 -156T534 -171T505 -180T471 -184T435 -186T396
-186H31Z" />
<glyph unicode="z" glyph-name="z" horiz-adv-x="878" d="M32 0V272L445 1194H71V1500H841V1194L439 301H816V0H32Z" />
<glyph unicode="{" glyph-name="braceleft" horiz-adv-x="698" d="M161 1225Q161 1416 287 1516T652 1623V1356Q604 1353 574 1345T531 1323T516 1299T513 1272Q513 1179 505 1110T486 999T449 918T404 859T343 802Q384 766 404 746T449 688T486 608T505 498T513
338Q512 323 513 316T521 295T541 274T583 260T652 249V-18Q413 -11 287 86T161 370Q161 376 161 387Q161 427 161 444T160 491T158 532T153 565T144 594T131 615T114 634T90 647T60 660T22 669V936Q49 941 68 946T102 963T127 981T144 1008T154 1041T159 1086T161
1139T161 1208Q161 1219 161 1225Z" />
<glyph unicode="|" glyph-name="bar" horiz-adv-x="509" d="M414 -84H95V1683H414V-84Z" />
<glyph unicode="}" glyph-name="braceright" horiz-adv-x="699" d="M538 1225Q538 1219 538 1208Q538 1161 538 1140T540 1086T545 1041T555 1009T571 982T596 963T631 947T677 936V669Q656 665 640 661T609 648T586 634T568 616T555 594T547 565T542 533T539
492T538 445T538 387Q538 376 538 370Q538 183 412 86T47 -18V249Q88 252 116 259T157 274T178 295T185 316T186 338Q186 430 194 498T213 608T249 688T295 746T356 802Q314 839 295 859T250 917T213 998T194 1110T186 1272Q186 1289 183 1299T168 1322T126 1344T47
1356V1623Q286 1616 412 1516T538 1225Z" />
<glyph unicode="~" glyph-name="asciitilde" horiz-adv-x="959" d="M332 886Q288 886 254 807L12 923Q133 1222 342 1222Q387 1222 438 1195T538 1141T625 1114Q669 1114 704 1193L946 1077Q823 776 614 776Q573 776 532 793T461 831T397 869T332 886Z" />
<glyph unicode="&#xa0;" glyph-name="uni00A0" horiz-adv-x="480" />
<glyph unicode="&#xa1;" glyph-name="exclamdown" horiz-adv-x="506" d="M74 1L144 1155H362L432 1H74ZM74 1593H432V1295H74V1593Z" />
<glyph unicode="&#xa2;" glyph-name="cent" horiz-adv-x="1014" d="M434 -113V-13Q363 -5 306 16T211 67T144 137T100 217T75 308T63 400T60 492V954Q60 1232 146 1363T434 1514V1607H607V1511Q764 1489 858 1391T953 1135V879H588V1116Q588 1172 572 1205T508
1239Q420 1239 420 1114V387Q420 341 440 303T506 264Q519 264 531 269T558 286T581 324T590 389L588 614H953V379Q953 216 859 113T607 -12V-113H434Z" />
<glyph unicode="&#xa3;" glyph-name="sterling" horiz-adv-x="1006" d="M64 673V905H199L185 964Q171 1024 158 1104T144 1224Q144 1315 168 1384T232 1494T328 1562T440 1598T561 1608Q622 1608 672 1599T776 1558T866 1476T926 1336T950 1125H631Q631 1221 619
1266T567 1312Q550 1312 540 1307T523 1294T515 1268T512 1234T511 1186Q511 1178 511 1173Q511 1127 567 905H851V673H602L613 541Q610 490 594 445T559 374T517 327T485 300T471 291H941V0H59V281Q165 344 200 405T235 568Q235 634 226 673H64Z" />
<glyph unicode="&#xa4;" glyph-name="currency" horiz-adv-x="1015" d="M507 545Q383 545 291 598L202 509L53 659L144 750Q91 848 91 964Q91 1081 143 1178L53 1268L202 1418L289 1330Q386 1385 507 1385Q627 1385 725 1331L812 1418L962 1269L872 1179Q926 1082
926 964T872 748L962 658L812 509L723 597Q630 545 507 545ZM507 1186Q409 1186 354 1120T299 964Q299 873 354 807T507 741T660 808T716 966Q716 1059 661 1122T507 1186Z" />
<glyph unicode="&#xa5;" glyph-name="yen" horiz-adv-x="969" d="M181 475V699H273L38 1593H387L485 1053L583 1593H931L697 699H785V475H651V408H785V176H651V0H319V176H181V408H319V475H181Z" />
<glyph unicode="&#xa6;" glyph-name="brokenbar" horiz-adv-x="513" d="M416 -84H97V676H416V-84ZM416 923H97V1683H416V923Z" />
<glyph unicode="&#xa7;" glyph-name="section" horiz-adv-x="954" d="M569 324Q569 339 556 354T514 386T458 416T385 451T311 488Q199 545 137 626T75 795Q75 927 213 1031Q75 1132 75 1275Q75 1414 186 1510T481 1607Q680 1607 785 1515T890 1221H585Q581 1346
492 1346Q448 1346 422 1323T396 1264Q396 1249 409 1234T451 1203T506 1173T578 1138T652 1101Q764 1043 826 962T889 792Q889 660 751 557Q890 454 890 313Q890 174 779 78T484 -19Q275 -19 165 73T55 367H390Q394 242 483 242Q523 242 546 265T569 324ZM573
681Q614 735 614 780Q614 849 412 917Q362 858 362 813Q362 776 415 746T573 681Z" />
<glyph unicode="&#xa8;" glyph-name="dieresis" horiz-adv-x="976" d="M67 1591V1889H425V1591H67ZM551 1591V1889H909V1591H551Z" />
<glyph unicode="&#xa9;" glyph-name="copyright" horiz-adv-x="1410" d="M274 1126Q207 1005 207 862T274 598T455 405T705 334T954 405T1136 597T1203 862T1136 1126T955 1319T705 1390T456 1319T274 1126ZM136 532Q48 683 48 862T136 1192T375 1431T705 1519T1035
1431T1274 1192T1362 862T1274 532T1035 293T705 205T375 293T136 532ZM942 806V643Q942 424 699 424Q597 424 533 482T469 648V1049Q469 1178 525 1241T703 1305Q806 1305 872 1255T938 1105V952H749V1053Q749 1130 703 1130Q676 1130 668 1113T659 1066V657Q659
631 671 612T703 592Q749 592 749 657V806H942Z" />
<glyph unicode="&#xaa;" glyph-name="ordfeminine" horiz-adv-x="828" d="M43 744Q43 902 90 982Q131 1050 231 1097Q282 1121 458 1181Q458 1182 458 1183Q458 1209 458 1224T457 1260T456 1292T453 1318T450 1339T444 1356T436 1370T427 1379T414 1384T397 1386Q338
1386 338 1321V1241H62Q61 1255 61 1280Q61 1450 141 1528T411 1607Q414 1607 418 1607Q475 1607 529 1591Q586 1574 635 1540T714 1447T744 1310V403H462V527Q448 474 397 432T285 389Q242 389 210 396T145 427T91 488T57 591T43 744ZM333 855V716Q333 611 397
611Q414 611 427 620T446 645T454 674T457 704V1017Q384 988 359 949T333 855Z" />
<glyph unicode="&#xab;" glyph-name="guillemotleft" horiz-adv-x="1218" d="M624 545V959L1134 1230V871L822 749L1134 618V260L624 545ZM46 545V959L556 1230V871L244 749L556 618V260L46 545Z" />
<glyph unicode="&#xac;" glyph-name="logicalnot" horiz-adv-x="868" d="M52 979H781V439H470V801H52V979Z" />
<glyph unicode="&#xae;" glyph-name="registered" horiz-adv-x="1410" d="M136 532Q48 683 48 862T136 1192T375 1431T705 1519T1035 1431T1274 1192T1362 862T1274 532T1035 293T705 205T375 293T136 532ZM274 1126Q207 1005 207 862T274 598T455 405T705 334T954
405T1136 597T1203 862T1136 1126T955 1319T705 1390T456 1319T274 1126ZM673 818V430H483V1282H772Q816 1282 847 1270T897 1239T926 1187T940 1122T943 1043Q943 1013 941 994T931 947T903 902T850 873Q929 858 929 751V430H745V762Q745 782 741 794T726 811T704
817T673 818ZM674 1124V965H722Q759 965 759 1043Q759 1096 743 1110T674 1124Z" />
<glyph unicode="&#xaf;" glyph-name="overscore" horiz-adv-x="491" d="M-40 1592V1840H530V1592H-40Z" />
<glyph unicode="&#xb0;" glyph-name="degree" horiz-adv-x="782" d="M285 1379Q249 1332 249 1269T285 1159T391 1112T496 1159T533 1269T497 1379T391 1426T285 1379ZM131 1022Q37 1113 37 1269T131 1516T390 1607T649 1516T744 1269T649 1022T390 931T131 1022Z" />
<glyph unicode="&#xb1;" glyph-name="plusminus" horiz-adv-x="761" d="M60 622V854H268V1062H500V854H708V622H500V414H268V622H60ZM101 -1V231H617V-1H101Z" />
<glyph unicode="&#xb2;" glyph-name="uni00B2" horiz-adv-x="646" d="M61 631V678Q61 823 165 976Q203 1032 324 1178Q375 1238 375 1341Q375 1424 322 1424Q271 1424 271 1337V1218H61L59 1278Q59 1450 116 1528T324 1606Q446 1606 516 1539T587 1344Q587 1273
567 1210T513 1097T444 1003T370 909T307 814H580V631H61Z" />
<glyph unicode="&#xb3;" glyph-name="uni00B3" horiz-adv-x="629" d="M302 635Q178 635 116 699T53 904V1004H255V903Q255 871 260 851T276 824T294 815T312 813Q340 813 351 837T363 935Q363 954 363 963T361 993T354 1027T339 1053T315 1075T279 1082Q266 1082
259 1081V1254Q310 1254 337 1275T364 1349Q364 1430 316 1430Q292 1430 280 1419T267 1392T265 1355T263 1317H59L58 1351Q59 1494 126 1550T315 1606Q567 1606 567 1351Q567 1318 564 1293T551 1243T523 1199T475 1170Q513 1153 530 1134T559 1069T570 935Q570
789 507 712T302 635Z" />
<glyph unicode="&#xb4;" glyph-name="acute" horiz-adv-x="650" d="M1 1593V1816L476 2034V1687L1 1593Z" />
<glyph unicode="&#xb5;" glyph-name="uni00B5" horiz-adv-x="1070" d="M619 1500H975V0H617V160Q585 78 545 39T453 -11V-186H93V1500H453V455Q453 341 466 303T533 264Q553 264 568 271T592 295T606 326T614 365T616 404T617 443Q617 451 617 455L619 1500Z" />
<glyph unicode="&#xb6;" glyph-name="paragraph" horiz-adv-x="1080" d="M391 0V797Q290 808 221 842T114 931T60 1053T44 1210Q44 1296 70 1361T142 1470T258 1541T410 1581T595 1593H970V0H731V1287H637V0H391Z" />
<glyph unicode="&#xb7;" glyph-name="middot" horiz-adv-x="491" d="M67 723V1021H425V723H67Z" />
<glyph unicode="&#xb8;" glyph-name="cedilla" horiz-adv-x="1015" d="M306 -591Q306 -591 306 -368Q372 -391 422 -391Q475 -391 506 -364T537 -279Q537 -223 495 -173T377 -106V0H588V-76Q715 -93 783 -165T852 -330Q852 -469 752 -550T504 -631Q402 -631 306 -591Z" />
<glyph unicode="&#xb9;" glyph-name="uni00B9" horiz-adv-x="441" d="M200 1607H359V656H149V1364Q90 1334 26 1334Q28 1398 28 1444Q28 1481 26 1487Q68 1487 134 1522T200 1607Z" />
<glyph unicode="&#xba;" glyph-name="ordmasculine" horiz-adv-x="844" d="M422 387Q66 387 66 757V1235Q66 1405 162 1506Q256 1605 419 1605Q420 1605 422 1605Q588 1605 683 1506T778 1235V757Q778 571 688 479T422 387ZM355 1280V699Q355 651 373 629T421
607T469 629T488 699V1280Q488 1384 422 1384T355 1280Z" />
<glyph unicode="&#xbb;" glyph-name="guillemotright" horiz-adv-x="1216" d="M593 545L83 260V618L395 749L83 871V1230L593 959V545ZM1170 545L660 260V618L972 749L660 871V1230L1170 959V545Z" />
<glyph unicode="&#xbc;" glyph-name="onequarter" horiz-adv-x="1435" d="M216 1607H375V656H165V1364Q106 1334 42 1334Q44 1398 44 1444Q44 1481 42 1487Q84 1487 150 1522T216 1607ZM616 0H333L823 1767H1107L616 0ZM1379 322V151H1340V-1H1133V151H830V300L1017
941H1340V322H1379ZM1023 322H1133V727L1023 322Z" />
<glyph unicode="&#xbd;" glyph-name="onehalf" horiz-adv-x="1601" d="M215 1607H374V656H164V1364Q105 1334 41 1334Q43 1398 43 1444Q43 1481 41 1487Q83 1487 149 1522T215 1607ZM673 0H390L880 1767H1164L673 0ZM1019 -1V46Q1019 191 1123 344Q1161 400 1282
546Q1333 606 1333 709Q1333 792 1280 792Q1229 792 1229 705V586H1019L1017 646Q1017 818 1074 896T1282 974Q1404 974 1474 907T1545 712Q1545 641 1525 578T1471 465T1402 371T1328 277T1265 182H1538V-1H1019Z" />
<glyph unicode="&#xbe;" glyph-name="threequarters" horiz-adv-x="1546" d="M301 635Q177 635 115 699T52 904V1004H254V903Q254 871 259 851T275 824T293 815T311 813Q339 813 350 837T362 935Q362 954 362 963T360 993T353 1027T338 1053T314 1075T278 1082Q265
1082 258 1081V1254Q309 1254 336 1275T363 1349Q363 1430 315 1430Q291 1430 279 1419T266 1392T264 1355T262 1317H58L57 1351Q58 1494 125 1550T314 1606Q566 1606 566 1351Q566 1318 563 1293T550 1243T522 1199T474 1170Q512 1153 529 1134T558 1069T569 935Q569
789 506 712T301 635ZM762 0H479L969 1767H1253L762 0ZM1497 324V153H1458V1H1251V153H948V302L1135 943H1458V324H1497ZM1141 324H1251V729L1141 324Z" />
<glyph unicode="&#xbf;" glyph-name="questiondown" horiz-adv-x="1041" d="M519 -17Q433 -17 364 -1T246 42T161 110T104 197T71 300T54 413T49 533Q49 654 78 753T167 930T328 1051T567 1094V1264H900V848Q817 848 754 844T642 829T558 805T500 766T461 716T439
648T429 566T426 465Q426 389 445 346T519 302Q533 302 543 303T567 315T591 344T606 399T613 488V634H979V380Q979 182 854 83T519 -17ZM911 1672V1374H553V1672H911Z" />
<glyph unicode="&#xc0;" glyph-name="Agrave" horiz-adv-x="947" d="M642 1732L167 1826V2173L642 1955V1732ZM750 1593L926 0H586L561 240H383L361 0H19L199 1593H750ZM487 1294H455L408 530H534L487 1294Z" />
<glyph unicode="&#xc1;" glyph-name="Aacute" horiz-adv-x="947" d="M283 1732V1955L758 2173V1826L283 1732ZM750 1593L926 0H586L561 240H383L361 0H19L199 1593H750ZM487 1294H455L408 530H534L487 1294Z" />
<glyph unicode="&#xc2;" glyph-name="Acircumflex" horiz-adv-x="947" d="M679 2135L920 1732H561L475 2017L389 1732H30L271 2135H679ZM750 1593L926 0H586L561 240H383L361 0H19L199 1593H750ZM487 1294H455L408 530H534L487 1294Z" />
<glyph unicode="&#xc3;" glyph-name="Atilde" horiz-adv-x="947" d="M348 1842Q316 1842 290 1753L68 1859Q121 1989 188 2053T348 2118Q386 2118 430 2091T516 2037T591 2010T650 2089L882 2033Q827 1883 756 1808T590 1732Q555 1732 519 1749T459 1787T404 1825T348
1842ZM750 1593L926 0H586L561 240H383L361 0H19L199 1593H750ZM487 1294H455L408 530H534L487 1294Z" />
<glyph unicode="&#xc4;" glyph-name="Adieresis" horiz-adv-x="947" d="M53 1732V2030H411V1732H53ZM537 1732V2030H895V1732H537ZM750 1593L926 0H586L561 240H383L361 0H19L199 1593H750ZM487 1294H455L408 530H534L487 1294Z" />
<glyph unicode="&#xc5;" glyph-name="Aring" horiz-adv-x="947" d="M333 2104T333 2041T369 1931T475 1884T580 1931T617 2041T581 2151T475 2198T370 2151ZM121 1885T121 2041T215 2288T474 2379T733 2288T828 2041T733 1794T474 1703T216 1794ZM750 1593L926
0H586L561 240H383L361 0H19L199 1593H750ZM487 1294H455L408 530H534L487 1294Z" />
<glyph unicode="&#xc6;" glyph-name="AE" horiz-adv-x="1294" d="M579 0L578 120V240H370L331 0H-10L311 1593H1223V1284H937V973H1209V674H937V311H1246V0H579ZM574 1294H546L416 530H574V1294Z" />
<glyph unicode="&#xc7;" glyph-name="Ccedilla" horiz-adv-x="994" d="M938 385Q938 177 820 80T490 -18Q302 -18 184 89T66 395V1134Q66 1371 170 1488T498 1606Q589 1606 666 1584T802 1517T896 1402T930 1237V956H582V1141Q582 1284 498 1284Q448 1284 432
1253T416 1165V412Q416 363 438 327T498 291Q532 291 557 317T582 412V686H938V385ZM229 -591Q229 -591 229 -368Q295 -391 345 -391Q398 -391 429 -364T460 -279Q460 -223 418 -173T300 -106V0H511V-76Q638 -93 706 -165T775 -330Q775 -469 675 -550T427 -631Q325
-631 229 -591Z" />
<glyph unicode="&#xc8;" glyph-name="Egrave" horiz-adv-x="862" d="M563 1732L88 1826V2173L563 1955V1732ZM87 0V1593H791V1284H445V973H777V674H445V311H814V0H87Z" />
<glyph unicode="&#xc9;" glyph-name="Eacute" horiz-adv-x="862" d="M315 1732V1955L790 2173V1826L315 1732ZM87 0V1593H791V1284H445V973H777V674H445V311H814V0H87Z" />
<glyph unicode="&#xca;" glyph-name="Ecircumflex" horiz-adv-x="862" d="M643 2135L884 1732H525L439 2017L353 1732H-6L235 2135H643ZM87 0V1593H791V1284H445V973H777V674H445V311H814V0H87Z" />
<glyph unicode="&#xcb;" glyph-name="Edieresis" horiz-adv-x="862" d="M18 1732V2030H376V1732H18ZM502 1732V2030H860V1732H502ZM87 0V1593H791V1284H445V973H777V674H445V311H814V0H87Z" />
<glyph unicode="&#xcc;" glyph-name="Igrave" horiz-adv-x="514" d="M429 1732L-46 1826V2173L429 1955V1732ZM87 0V1593H427V0H87Z" />
<glyph unicode="&#xcd;" glyph-name="Iacute" horiz-adv-x="514" d="M81 1732V1955L556 2173V1826L81 1732ZM87 0V1593H427V0H87Z" />
<glyph unicode="&#xce;" glyph-name="Icircumflex" horiz-adv-x="514" d="M461 2135L702 1732H343L257 2017L171 1732H-188L53 2135H461ZM87 0V1593H427V0H87Z" />
<glyph unicode="&#xcf;" glyph-name="Idieresis" horiz-adv-x="514" d="M-164 1732V2030H194V1732H-164ZM320 1732V2030H678V1732H320ZM87 0V1593H427V0H87Z" />
<glyph unicode="&#xd0;" glyph-name="Eth" horiz-adv-x="1020" d="M87 0V762H0V994H87V1593H572Q769 1593 859 1493T951 1217L955 473Q955 234 862 117T560 0H87ZM441 1311V994H516V762H441V291Q444 292 453 292Q459 292 475 291T502 290Q603 290 603 375V1161Q603
1248 576 1280T480 1313Q469 1313 441 1311Z" />
<glyph unicode="&#xd1;" glyph-name="Ntilde" horiz-adv-x="1038" d="M392 1842Q360 1842 334 1753L112 1859Q165 1989 232 2053T392 2118Q430 2118 474 2091T560 2037T635 2010T694 2089L926 2033Q871 1883 800 1808T634 1732Q599 1732 563 1749T503 1787T448
1825T392 1842ZM951 1593V0H607L431 797V0H87V1593H449L611 831V1593H951Z" />
<glyph unicode="&#xd2;" glyph-name="Ograve" horiz-adv-x="1000" d="M677 1732L202 1826V2173L677 1955V1732ZM66 430V1189Q66 1388 173 1497T497 1610Q719 1607 826 1498T934 1189V430Q934 333 910 254T835 112T700 16T503 -15Q386 -18 301 16T165 112T91 253T66
430ZM500 297Q519 297 533 304T556 327T570 357T577 394T579 430T580 465Q580 470 580 473V1113Q580 1119 580 1137T581 1164T580 1190T577 1217T571 1241T561 1263T547 1279T527 1291T500 1295Q479 1295 464 1288T439 1266T424 1238T416 1201T414 1166T414 1130Q414
1126 414 1123T414 1117V477Q414 455 414 442T417 404T424 364T439 331T463 306T500 297Z" />
<glyph unicode="&#xd3;" glyph-name="Oacute" horiz-adv-x="1000" d="M309 1732V1955L784 2173V1826L309 1732ZM66 430V1189Q66 1388 173 1497T497 1610Q719 1607 826 1498T934 1189V430Q934 333 910 254T835 112T700 16T503 -15Q386 -18 301 16T165 112T91 253T66
430ZM500 297Q519 297 533 304T556 327T570 357T577 394T579 430T580 465Q580 470 580 473V1113Q580 1119 580 1137T581 1164T580 1190T577 1217T571 1241T561 1263T547 1279T527 1291T500 1295Q479 1295 464 1288T439 1266T424 1238T416 1201T414 1166T414 1130Q414
1126 414 1123T414 1117V477Q414 455 414 442T417 404T424 364T439 331T463 306T500 297Z" />
<glyph unicode="&#xd4;" glyph-name="Ocircumflex" horiz-adv-x="1000" d="M701 2135L942 1732H583L497 2017L411 1732H52L293 2135H701ZM66 430V1189Q66 1388 173 1497T497 1610Q719 1607 826 1498T934 1189V430Q934 333 910 254T835 112T700 16T503 -15Q386
-18 301 16T165 112T91 253T66 430ZM500 297Q519 297 533 304T556 327T570 357T577 394T579 430T580 465Q580 470 580 473V1113Q580 1119 580 1137T581 1164T580 1190T577 1217T571 1241T561 1263T547 1279T527 1291T500 1295Q479 1295 464 1288T439 1266T424 1238T416
1201T414 1166T414 1130Q414 1126 414 1123T414 1117V477Q414 455 414 442T417 404T424 364T439 331T463 306T500 297Z" />
<glyph unicode="&#xd5;" glyph-name="Otilde" horiz-adv-x="1000" d="M370 1842Q338 1842 312 1753L90 1859Q143 1989 210 2053T370 2118Q408 2118 452 2091T538 2037T613 2010T672 2089L904 2033Q849 1883 778 1808T612 1732Q577 1732 541 1749T481 1787T426
1825T370 1842ZM66 430V1189Q66 1388 173 1497T497 1610Q719 1607 826 1498T934 1189V430Q934 333 910 254T835 112T700 16T503 -15Q386 -18 301 16T165 112T91 253T66 430ZM500 297Q519 297 533 304T556 327T570 357T577 394T579 430T580 465Q580 470 580 473V1113Q580
1119 580 1137T581 1164T580 1190T577 1217T571 1241T561 1263T547 1279T527 1291T500 1295Q479 1295 464 1288T439 1266T424 1238T416 1201T414 1166T414 1130Q414 1126 414 1123T414 1117V477Q414 455 414 442T417 404T424 364T439 331T463 306T500 297Z" />
<glyph unicode="&#xd6;" glyph-name="Odieresis" horiz-adv-x="1000" d="M76 1732V2030H434V1732H76ZM560 1732V2030H918V1732H560ZM66 430V1189Q66 1388 173 1497T497 1610Q719 1607 826 1498T934 1189V430Q934 333 910 254T835 112T700 16T503 -15Q386 -18 301
16T165 112T91 253T66 430ZM500 297Q519 297 533 304T556 327T570 357T577 394T579 430T580 465Q580 470 580 473V1113Q580 1119 580 1137T581 1164T580 1190T577 1217T571 1241T561 1263T547 1279T527 1291T500 1295Q479 1295 464 1288T439 1266T424 1238T416
1201T414 1166T414 1130Q414 1126 414 1123T414 1117V477Q414 455 414 442T417 404T424 364T439 331T463 306T500 297Z" />
<glyph unicode="&#xd7;" glyph-name="multiply" horiz-adv-x="720" d="M213 314L49 478L196 625L49 772L213 936L360 789L507 936L671 772L524 625L671 478L507 314L360 461L213 314Z" />
<glyph unicode="&#xd8;" glyph-name="Oslash" horiz-adv-x="1000" d="M500 -18Q416 -18 345 1L311 -120L211 -92L248 42Q66 151 66 430V1189Q66 1388 173 1497T500 1607Q598 1607 676 1584L708 1699L809 1671L772 1540Q934 1437 934 1189V430Q934 333 910 254T835
112T700 16T500 -18ZM500 1295Q479 1295 464 1288T439 1266T424 1238T416 1201T414 1166T414 1130Q414 1126 414 1123T414 1117V639L576 1222Q562 1295 500 1295ZM500 297Q519 297 533 304T556 327T570 357T577 394T579 430T580 465Q580 470 580 473V846L437 333Q458
297 500 297Z" />
<glyph unicode="&#xd9;" glyph-name="Ugrave" horiz-adv-x="1020" d="M674 1732L199 1826V2173L674 1955V1732ZM82 422V1593H424V453Q424 451 424 446Q424 420 424 405T429 364T442 323T468 297T510 285Q531 285 546 292T571 313T585 341T593 377T595 412T596
446Q596 451 596 453V1593H938V422Q938 206 835 94T512 -17Q289 -18 186 94T82 422Z" />
<glyph unicode="&#xda;" glyph-name="Uacute" horiz-adv-x="1020" d="M338 1732V1955L813 2173V1826L338 1732ZM82 422V1593H424V453Q424 451 424 446Q424 420 424 405T429 364T442 323T468 297T510 285Q531 285 546 292T571 313T585 341T593 377T595 412T596
446Q596 451 596 453V1593H938V422Q938 206 835 94T512 -17Q289 -18 186 94T82 422Z" />
<glyph unicode="&#xdb;" glyph-name="Ucircumflex" horiz-adv-x="1020" d="M714 2135L955 1732H596L510 2017L424 1732H65L306 2135H714ZM82 422V1593H424V453Q424 451 424 446Q424 420 424 405T429 364T442 323T468 297T510 285Q531 285 546 292T571 313T585
341T593 377T595 412T596 446Q596 451 596 453V1593H938V422Q938 206 835 94T512 -17Q289 -18 186 94T82 422Z" />
<glyph unicode="&#xdc;" glyph-name="Udieresis" horiz-adv-x="1020" d="M89 1732V2030H447V1732H89ZM573 1732V2030H931V1732H573ZM82 422V1593H424V453Q424 451 424 446Q424 420 424 405T429 364T442 323T468 297T510 285Q531 285 546 292T571 313T585 341T593
377T595 412T596 446Q596 451 596 453V1593H938V422Q938 206 835 94T512 -17Q289 -18 186 94T82 422Z" />
<glyph unicode="&#xdd;" glyph-name="Yacute" horiz-adv-x="859" d="M389 1732V1955L864 2173V1826L389 1732ZM596 0H264V524L-17 1593H332L430 1053L528 1593H876L596 524V0Z" />
<glyph unicode="&#xde;" glyph-name="Thorn" horiz-adv-x="972" d="M87 0V1593H432V1418H552Q644 1418 713 1392T835 1305T915 1136T943 875Q943 771 933 692T898 543T832 430T727 361T576 336H433V0H87ZM433 1128V623H453Q487 623 503 625T541 641T572 680T588
756T595 881Q595 1021 568 1074T472 1128H433Z" />
<glyph unicode="&#xdf;" glyph-name="germandbls" horiz-adv-x="1027" d="M505 1593Q599 1593 673 1574T807 1514T899 1401T931 1229Q931 1224 931 1214Q931 1179 931 1162T928 1109T920 1052T903 1000T877 951T837 915T781 887Q823 877 856 856T910 809T948 748T972
681T984 609T990 541T991 476Q991 359 974 276T913 129T794 32T604 0H500V281Q643 281 643 399V598Q643 677 611 711T496 745V993Q525 993 543 1004T569 1036T578 1072T580 1112V1270Q580 1346 505 1346T430 1270V0H80V1229Q80 1593 505 1593Z" />
<glyph unicode="&#xe0;" glyph-name="agrave" horiz-adv-x="1004" d="M616 1640L141 1734V2081L616 1863V1640ZM41 430Q41 629 100 729Q151 815 277 874Q341 904 563 980Q563 981 563 983Q563 1015 563 1035T562 1080T560 1120T557 1153T553 1180T546 1201T536
1219T523 1230T507 1237T486 1239Q412 1239 412 1157V1056H64Q63 1073 63 1105Q63 1319 164 1418T504 1518Q581 1518 653 1497T787 1433T886 1315T924 1143V0H568V156Q550 90 485 36T345 -18Q291 -18 250 -9T168 30T101 107T58 237T41 430ZM406 570Q406 570 406
395Q406 262 486 262Q508 262 524 274T548 305T559 342T562 379V774Q470 737 438 688T406 570Z" />
<glyph unicode="&#xe1;" glyph-name="aacute" horiz-adv-x="1004" d="M364 1640V1863L839 2081V1734L364 1640ZM41 430Q41 629 100 729Q151 815 277 874Q341 904 563 980Q563 981 563 983Q563 1015 563 1035T562 1080T560 1120T557 1153T553 1180T546 1201T536
1219T523 1230T507 1237T486 1239Q412 1239 412 1157V1056H64Q63 1073 63 1105Q63 1319 164 1418T504 1518Q581 1518 653 1497T787 1433T886 1315T924 1143V0H568V156Q550 90 485 36T345 -18Q291 -18 250 -9T168 30T101 107T58 237T41 430ZM406 570Q406 570 406
395Q406 262 486 262Q508 262 524 274T548 305T559 342T562 379V774Q470 737 438 688T406 570Z" />
<glyph unicode="&#xe2;" glyph-name="acircumflex" horiz-adv-x="1004" d="M708 2043L949 1640H590L504 1925L418 1640H59L300 2043H708ZM41 430Q41 629 100 729Q151 815 277 874Q341 904 563 980Q563 981 563 983Q563 1015 563 1035T562 1080T560 1120T557 1153T553
1180T546 1201T536 1219T523 1230T507 1237T486 1239Q412 1239 412 1157V1056H64Q63 1073 63 1105Q63 1319 164 1418T504 1518Q581 1518 653 1497T787 1433T886 1315T924 1143V0H568V156Q550 90 485 36T345 -18Q291 -18 250 -9T168 30T101 107T58 237T41 430ZM406
570Q406 570 406 395Q406 262 486 262Q508 262 524 274T548 305T559 342T562 379V774Q470 737 438 688T406 570Z" />
<glyph unicode="&#xe3;" glyph-name="atilde" horiz-adv-x="1004" d="M377 1750Q345 1750 319 1661L97 1767Q150 1897 217 1961T377 2026Q415 2026 459 1999T545 1945T620 1918T679 1997L911 1941Q856 1791 785 1716T619 1640Q584 1640 548 1657T488 1695T433
1733T377 1750ZM41 430Q41 629 100 729Q151 815 277 874Q341 904 563 980Q563 981 563 983Q563 1015 563 1035T562 1080T560 1120T557 1153T553 1180T546 1201T536 1219T523 1230T507 1237T486 1239Q412 1239 412 1157V1056H64Q63 1073 63 1105Q63 1319 164 1418T504
1518Q581 1518 653 1497T787 1433T886 1315T924 1143V0H568V156Q550 90 485 36T345 -18Q291 -18 250 -9T168 30T101 107T58 237T41 430ZM406 570Q406 570 406 395Q406 262 486 262Q508 262 524 274T548 305T559 342T562 379V774Q470 737 438 688T406 570Z" />
<glyph unicode="&#xe4;" glyph-name="adieresis" horiz-adv-x="1004" d="M83 1640V1938H441V1640H83ZM567 1640V1938H925V1640H567ZM41 430Q41 629 100 729Q151 815 277 874Q341 904 563 980Q563 981 563 983Q563 1015 563 1035T562 1080T560 1120T557 1153T553
1180T546 1201T536 1219T523 1230T507 1237T486 1239Q412 1239 412 1157V1056H64Q63 1073 63 1105Q63 1319 164 1418T504 1518Q581 1518 653 1497T787 1433T886 1315T924 1143V0H568V156Q550 90 485 36T345 -18Q291 -18 250 -9T168 30T101 107T58 237T41 430ZM406
570Q406 570 406 395Q406 262 486 262Q508 262 524 274T548 305T559 342T562 379V774Q470 737 438 688T406 570Z" />
<glyph unicode="&#xe5;" glyph-name="aring" horiz-adv-x="1004" d="M363 2041T363 1978T399 1868T505 1821T610 1868T647 1978T611 2088T505 2135T400 2088ZM151 1822T151 1978T245 2225T504 2316T763 2225T858 1978T763 1731T504 1640T246 1731ZM41 430Q41 629
100 729Q151 815 277 874Q341 904 563 980Q563 981 563 983Q563 1015 563 1035T562 1080T560 1120T557 1153T553 1180T546 1201T536 1219T523 1230T507 1237T486 1239Q412 1239 412 1157V1056H64Q63 1073 63 1105Q63 1319 164 1418T504 1518Q581 1518 653 1497T787
1433T886 1315T924 1143V0H568V156Q550 90 485 36T345 -18Q291 -18 250 -9T168 30T101 107T58 237T41 430ZM406 570Q406 570 406 395Q406 262 486 262Q508 262 524 274T548 305T559 342T562 379V774Q470 737 438 688T406 570Z" />
<glyph unicode="&#xe6;" glyph-name="ae" horiz-adv-x="1500" d="M1034 -18Q973 -18 921 0T838 40T785 90T755 130T746 148L738 131Q730 114 707 90Q685 66 653 41T567 -1T447 -18Q397 -18 348 -9T241 30T139 107T66 237T36 430Q36 630 95 729Q146 815 272 874Q336
904 558 980Q558 981 558 983Q558 1015 558 1035T557 1080T555 1120T552 1153T548 1180T541 1201T531 1219T518 1230T502 1237T481 1239Q407 1239 407 1157V1056H59Q58 1073 58 1105Q58 1319 159 1418T499 1518Q663 1518 745 1396Q825 1518 1012 1518Q1444 1518
1444 1092V983Q1444 780 1440 704H919V494Q919 260 1006 260Q1025 260 1040 269T1064 298T1078 336T1086 385T1089 434T1090 483Q1090 571 1088 579H1444V494Q1444 395 1434 321T1397 180T1324 72T1206 6T1034 -18ZM401 570Q401 570 401 395Q401 262 481 262Q503
262 519 274T543 305T554 342T557 379V774Q465 737 433 688T401 570ZM1008 1249Q957 1249 938 1209T919 1052V931H1088V1087Q1088 1249 1008 1249Z" />
<glyph unicode="&#xe7;" glyph-name="ccedilla" horiz-adv-x="1004" d="M60 954Q60 1258 165 1388T518 1518Q711 1518 832 1416T953 1135V879H588V1116Q588 1172 572 1205T508 1239Q420 1239 420 1114V387Q420 341 440 303T506 264Q519 264 531 269T558 286T581
324T590 389L588 614H953V379Q953 194 834 88T523 -18Q435 -18 364 -1T246 43T163 113T109 197T78 293T63 392T60 492V954ZM233 -591Q233 -591 233 -368Q299 -391 349 -391Q402 -391 433 -364T464 -279Q464 -223 422 -173T304 -106V0H515V-76Q642 -93 710 -165T779
-330Q779 -469 679 -550T431 -631Q329 -631 233 -591Z" />
<glyph unicode="&#xe8;" glyph-name="egrave" horiz-adv-x="1000" d="M722 1640L247 1734V2081L722 1863V1640ZM494 -18Q414 -18 349 -2T240 41T163 108T111 191T81 287T66 387T62 489V1092Q62 1299 180 1408T512 1518Q944 1518 944 1092V983Q944 780 940 704H420V494Q420
484 420 462T419 427Q419 391 422 366T433 314T459 274T506 260Q535 260 553 280T578 339T588 408T590 483Q590 571 588 579H944V494Q944 369 925 281T858 123T719 17T494 -18ZM508 1249Q480 1249 461 1235T433 1191T421 1132T418 1057Q418 1036 419 994T420 931H588V1087Q588
1249 508 1249Z" />
<glyph unicode="&#xe9;" glyph-name="eacute" horiz-adv-x="1000" d="M334 1640V1863L809 2081V1734L334 1640ZM494 -18Q414 -18 349 -2T240 41T163 108T111 191T81 287T66 387T62 489V1092Q62 1299 180 1408T512 1518Q944 1518 944 1092V983Q944 780 940 704H420V494Q420
484 420 462T419 427Q419 391 422 366T433 314T459 274T506 260Q535 260 553 280T578 339T588 408T590 483Q590 571 588 579H944V494Q944 369 925 281T858 123T719 17T494 -18ZM508 1249Q480 1249 461 1235T433 1191T421 1132T418 1057Q418 1036 419 994T420 931H588V1087Q588
1249 508 1249Z" />
<glyph unicode="&#xea;" glyph-name="ecircumflex" horiz-adv-x="1000" d="M716 2043L957 1640H598L512 1925L426 1640H67L308 2043H716ZM494 -18Q414 -18 349 -2T240 41T163 108T111 191T81 287T66 387T62 489V1092Q62 1299 180 1408T512 1518Q944 1518 944 1092V983Q944
780 940 704H420V494Q420 484 420 462T419 427Q419 391 422 366T433 314T459 274T506 260Q535 260 553 280T578 339T588 408T590 483Q590 571 588 579H944V494Q944 369 925 281T858 123T719 17T494 -18ZM508 1249Q480 1249 461 1235T433 1191T421 1132T418 1057Q418
1036 419 994T420 931H588V1087Q588 1249 508 1249Z" />
<glyph unicode="&#xeb;" glyph-name="edieresis" horiz-adv-x="1000" d="M91 1640V1938H449V1640H91ZM575 1640V1938H933V1640H575ZM494 -18Q414 -18 349 -2T240 41T163 108T111 191T81 287T66 387T62 489V1092Q62 1299 180 1408T512 1518Q944 1518 944 1092V983Q944
780 940 704H420V494Q420 484 420 462T419 427Q419 391 422 366T433 314T459 274T506 260Q535 260 553 280T578 339T588 408T590 483Q590 571 588 579H944V494Q944 369 925 281T858 123T719 17T494 -18ZM508 1249Q480 1249 461 1235T433 1191T421 1132T418 1057Q418
1036 419 994T420 931H588V1087Q588 1249 508 1249Z" />
<glyph unicode="&#xec;" glyph-name="igrave" horiz-adv-x="526" d="M732 1640L257 1734V2081L732 1863V1640ZM84 0V1500H442V0H84Z" />
<glyph unicode="&#xed;" glyph-name="iacute" horiz-adv-x="526" d="M50 1640V1863L525 2081V1734L50 1640ZM84 0V1500H442V0H84Z" />
<glyph unicode="&#xee;" glyph-name="icircumflex" horiz-adv-x="526" d="M467 2043L708 1640H349L263 1925L177 1640H-182L59 2043H467ZM84 0V1500H442V0H84Z" />
<glyph unicode="&#xef;" glyph-name="idieresis" horiz-adv-x="526" d="M-158 1640V1938H200V1640H-158ZM326 1640V1938H684V1640H326ZM84 0V1500H442V0H84Z" />
<glyph unicode="&#xf0;" glyph-name="eth" horiz-adv-x="1036" d="M64 477L68 1053Q68 1125 87 1189T143 1305T240 1387T377 1418Q520 1418 594 1319V1502H489V1674H594V1767H952V1674H1005V1502H952V0H594V159Q556 58 500 20T371 -18Q319 -18 277 -9T204 21T150
66T111 128T87 200T72 285T66 377T64 477ZM422 983V452Q422 264 508 264Q524 264 536 270T558 288T573 313T584 346T590 381T593 420T594 456T595 491T594 520V983Q594 1006 592 1028T581 1077T555 1122T510 1139Q482 1139 463 1125T436 1086T425 1037T422 983Z"
/>
<glyph unicode="&#xf1;" glyph-name="ntilde" horiz-adv-x="1045" d="M398 1750Q366 1750 340 1661L118 1767Q171 1897 238 1961T398 2026Q436 2026 480 1999T566 1945T641 1918T700 1997L932 1941Q877 1791 806 1716T640 1640Q605 1640 569 1657T509 1695T454
1733T398 1750ZM84 0V1501H442V1329Q464 1426 523 1472T668 1518Q809 1518 887 1430T965 1157V0H612V1120Q612 1167 593 1203T532 1239Q506 1239 488 1225T462 1192T448 1143T443 1097T442 1055V0H84Z" />
<glyph unicode="&#xf2;" glyph-name="ograve" horiz-adv-x="1018" d="M707 1640L232 1734V2081L707 1863V1640ZM509 -18Q61 -18 61 449V1051Q61 1266 181 1392T509 1518Q718 1518 838 1392T958 1051V449Q958 214 844 98T509 -18ZM425 1108V375Q425 315 448 288T509
260T569 287T593 375V1108Q593 1239 509 1239T425 1108Z" />
<glyph unicode="&#xf3;" glyph-name="oacute" horiz-adv-x="1018" d="M322 1640V1863L797 2081V1734L322 1640ZM509 -18Q61 -18 61 449V1051Q61 1266 181 1392T509 1518Q718 1518 838 1392T958 1051V449Q958 214 844 98T509 -18ZM425 1108V375Q425 315 448 288T509
260T569 287T593 375V1108Q593 1239 509 1239T425 1108Z" />
<glyph unicode="&#xf4;" glyph-name="ocircumflex" horiz-adv-x="1018" d="M713 2043L954 1640H595L509 1925L423 1640H64L305 2043H713ZM509 -18Q61 -18 61 449V1051Q61 1266 181 1392T509 1518Q718 1518 838 1392T958 1051V449Q958 214 844 98T509 -18ZM425
1108V375Q425 315 448 288T509 260T569 287T593 375V1108Q593 1239 509 1239T425 1108Z" />
<glyph unicode="&#xf5;" glyph-name="otilde" horiz-adv-x="1018" d="M382 1750Q350 1750 324 1661L102 1767Q155 1897 222 1961T382 2026Q420 2026 464 1999T550 1945T625 1918T684 1997L916 1941Q861 1791 790 1716T624 1640Q589 1640 553 1657T493 1695T438
1733T382 1750ZM509 -18Q61 -18 61 449V1051Q61 1266 181 1392T509 1518Q718 1518 838 1392T958 1051V449Q958 214 844 98T509 -18ZM425 1108V375Q425 315 448 288T509 260T569 287T593 375V1108Q593 1239 509 1239T425 1108Z" />
<glyph unicode="&#xf6;" glyph-name="odieresis" horiz-adv-x="1018" d="M88 1640V1938H446V1640H88ZM572 1640V1938H930V1640H572ZM509 -18Q61 -18 61 449V1051Q61 1266 181 1392T509 1518Q718 1518 838 1392T958 1051V449Q958 214 844 98T509 -18ZM425 1108V375Q425
315 448 288T509 260T569 287T593 375V1108Q593 1239 509 1239T425 1108Z" />
<glyph unicode="&#xf7;" glyph-name="divide" horiz-adv-x="721" d="M52 638V870H668V638H52ZM211 237V535H509V237H211ZM211 976V1274H509V976H211Z" />
<glyph unicode="&#xf8;" glyph-name="oslash" horiz-adv-x="1018" d="M509 -18Q419 -18 342 2L293 -173L193 -145L245 42Q61 151 61 449V1051Q61 1266 181 1392T509 1518Q583 1518 653 1499L702 1672L803 1644L751 1459Q851 1402 904 1298T958 1051V449Q958 214
844 98T509 -18ZM509 260Q546 260 569 287T593 375V895L432 321Q450 260 509 260ZM509 1239Q425 1239 425 1108V683L571 1206Q550 1239 509 1239Z" />
<glyph unicode="&#xf9;" glyph-name="ugrave" horiz-adv-x="1046" d="M728 1640L253 1734V2081L728 1863V1640ZM606 1500H962V0H604V160Q562 54 508 18T373 -18Q297 -18 242 4T156 61T108 151T85 259T80 383V1500H440V455Q440 341 453 303T520 264Q540 264 555
271T579 295T593 326T601 365T603 404T604 443Q604 451 604 455L606 1500Z" />
<glyph unicode="&#xfa;" glyph-name="uacute" horiz-adv-x="1046" d="M337 1640V1863L812 2081V1734L337 1640ZM606 1500H962V0H604V160Q562 54 508 18T373 -18Q297 -18 242 4T156 61T108 151T85 259T80 383V1500H440V455Q440 341 453 303T520 264Q540 264 555
271T579 295T593 326T601 365T603 404T604 443Q604 451 604 455L606 1500Z" />
<glyph unicode="&#xfb;" glyph-name="ucircumflex" horiz-adv-x="1046" d="M725 2043L966 1640H607L521 1925L435 1640H76L317 2043H725ZM606 1500H962V0H604V160Q562 54 508 18T373 -18Q297 -18 242 4T156 61T108 151T85 259T80 383V1500H440V455Q440 341 453
303T520 264Q540 264 555 271T579 295T593 326T601 365T603 404T604 443Q604 451 604 455L606 1500Z" />
<glyph unicode="&#xfc;" glyph-name="udieresis" horiz-adv-x="1046" d="M100 1640V1938H458V1640H100ZM584 1640V1938H942V1640H584ZM606 1500H962V0H604V160Q562 54 508 18T373 -18Q297 -18 242 4T156 61T108 151T85 259T80 383V1500H440V455Q440 341 453 303T520
264Q540 264 555 271T579 295T593 326T601 365T603 404T604 443Q604 451 604 455L606 1500Z" />
<glyph unicode="&#xfd;" glyph-name="yacute" horiz-adv-x="905" d="M321 1640V1863L796 2081V1734L321 1640ZM31 -186V41H143Q199 41 219 55T240 103Q240 122 235 155L4 1501H357L423 821L447 489L475 821L555 1501H910L632 -14Q628 -42 621 -65T606 -105T585
-135T562 -156T534 -171T505 -180T471 -184T435 -186T396 -186H31Z" />
<glyph unicode="&#xfe;" glyph-name="thorn" horiz-adv-x="1043" d="M451 160Q451 160 451 -185H83V1769H451V1427Q541 1519 651 1519Q672 1519 687 1519T730 1514T778 1503T826 1481T873 1447T914 1396T948 1326T969 1233T978 1114V391Q978 312 964 248T929 143T876
70T817 22T756 -3T703 -15T662 -18Q517 -18 451 160ZM451 1085V457Q451 344 473 304T541 263Q585 263 600 301T615 457V1081Q615 1174 596 1206T539 1239Q500 1239 476 1207T451 1085Z" />
<glyph unicode="&#xff;" glyph-name="ydieresis" horiz-adv-x="905" d="M292 1640V1938H650V1640H292ZM776 1640V1938H1134V1640H776ZM31 -186V41H143Q199 41 219 55T240 103Q240 122 235 155L4 1501H357L423 821L447 489L475 821L555 1501H910L632 -14Q628 -42
621 -65T606 -105T585 -135T562 -156T534 -171T505 -180T471 -184T435 -186T396 -186H31Z" />
<glyph unicode="&#x2013;" glyph-name="endash" horiz-adv-x="646" d="M65 509V741H581V509H65Z" />
<glyph unicode="&#x2014;" glyph-name="emdash" horiz-adv-x="1162" d="M65 741H1097V509H65V741Z" />
<glyph unicode="&#x2018;" glyph-name="quoteleft" horiz-adv-x="487" d="M431 1356V1058H57V1347L159 1592H370L304 1356H431Z" />
<glyph unicode="&#x2019;" glyph-name="quoteright" horiz-adv-x="477" d="M52 1294V1592H426V1303L324 1058H113L179 1294H52Z" />
<glyph unicode="&#x201a;" glyph-name="quotesinglbase" horiz-adv-x="495" d="M60 0V298H434V9L332 -236H121L187 0H60Z" />
<glyph unicode="&#x201c;" glyph-name="quotedblleft" horiz-adv-x="956" d="M900 1356V1058H526V1347L628 1592H839L773 1356H900ZM431 1356V1058H57V1347L159 1592H370L304 1356H431Z" />
<glyph unicode="&#x201d;" glyph-name="quotedblright" horiz-adv-x="951" d="M525 1294V1592H899V1303L797 1058H586L652 1294H525ZM52 1294V1592H426V1303L324 1058H113L179 1294H52Z" />
<glyph unicode="&#x201e;" glyph-name="quotedblbase" horiz-adv-x="967" d="M533 0V298H907V9L805 -236H594L660 0H533ZM60 0V298H434V9L332 -236H121L187 0H60Z" />
<glyph unicode="&#x2022;" glyph-name="bullet" horiz-adv-x="709" d="M124 494Q41 585 41 741T124 988T354 1079T584 988T668 741T584 494T354 403T124 494Z" />
<glyph unicode="&#x2039;" glyph-name="guilsinglleft" horiz-adv-x="640" d="M46 545V959L556 1230V871L244 749L556 618V260L46 545Z" />
<glyph unicode="&#x203a;" glyph-name="guilsinglright" horiz-adv-x="639" d="M593 545L83 260V618L395 749L83 871V1230L593 959V545Z" />
</font>
</defs>
</svg>
